<?xml version="1.0" encoding="utf-8"?>
<!-- Generator: Adobe Illustrator 28.3.0, SVG Export Plug-In . SVG Version: 6.00 Build 0)  -->
<svg version="1.0" id="Layer_1" xmlns="http://www.w3.org/2000/svg" xmlns:xlink="http://www.w3.org/1999/xlink" x="0px" y="0px"
	 viewBox="0 0 2048 2048" style="enable-background:new 0 0 2048 2048;" xml:space="preserve">
<style type="text/css">
	.st0{fill:#993399;}
</style>
<path class="st0" d="M1884.6,171.8L2048,549.3v284.5l-140.8,371.8l-433.8,191.6l-309.9-245.1l8.4,264.8l-42.3,552.1L997.3,2048
	l-152.1-78.9l11.3-552.1l-28.2-642.3V33.8l169-16.9L1140.9,62l2.8,146.5L1456.4,0L1884.6,171.8z M1476.2,1140.9l284.5-293
	l-11.3-284.5l-276.1-309.9l-295.8,309.9l-5.6,326.8L1476.2,1140.9z"/>
<path class="st0" d="M137,1302.9h191.6l78.9,163.4l-90.1,129.6l-160.6,5.6L69.4,1455L137,1302.9z"/>
<path class="st0" d="M137,446.5l191.6,2.8l78.9,163.4l-90.1,129.6l-160.6,5.6L69.4,601.5L137,446.5z"/>
</svg>
